<svg width="73" height="30" viewBox="0 0 73 30" fill="none" xmlns="http://www.w3.org/2000/svg">
<mask id="mask0_696_2845" style="mask-type:luminance" maskUnits="userSpaceOnUse" x="0" y="0" width="73" height="30">
<path d="M72.089 0.666016H0.890625V29.9082H72.089V0.666016Z" fill="white"/>
</mask>
<g mask="url(#mask0_696_2845)">
<path d="M36.3726 29.9082C55.967 29.9082 71.8498 23.3607 71.8498 15.2895C71.8498 7.21346 55.967 0.666016 36.3726 0.666016C16.7782 0.666016 0.890625 7.21346 0.890625 15.2895C0.890625 23.3607 16.7782 29.9082 36.3726 29.9082Z" fill="#333333"/>
<path d="M45.2485 11.6821L46.1777 7.97754H34.0649L33.1406 11.6821H37.1052L35.1594 19.4661H39.3332L41.2791 11.6821H45.2485Z" fill="#E6E0E9"/>
<path d="M33.0238 7.97754H26.982L23.1342 16.4917V7.97754H17.2821L13.6191 22.5961H17.6421L20.0258 13.162V22.5961H23.1342L27.7117 13.162L25.5178 22.5961H29.3608L33.0238 7.97754Z" fill="#E6E0E9"/>
<path d="M59.1174 7.97754H55.2744L53.2654 15.7566L51.4314 7.97754H47.2187L43.5605 22.5961H47.4084L49.4174 14.6418L51.4314 22.5961H55.4593L59.1174 7.97754Z" fill="#E6E0E9"/>
<path d="M34.8964 20.5068L34.3711 22.5952H38.5497L39.0702 20.5068H34.8964Z" fill="#E6E0E9"/>
</g>
</svg>
