<svg width="115" height="22" viewBox="0 0 115 22" fill="none" xmlns="http://www.w3.org/2000/svg">
<mask id="mask0_696_2860" style="mask-type:luminance" maskUnits="userSpaceOnUse" x="0" y="0" width="115" height="22">
<path d="M114.042 0.00195312H0.806641V21.514H114.042V0.00195312Z" fill="white"/>
</mask>
<g mask="url(#mask0_696_2860)">
<path d="M31.1091 17.4461V21.5127H28.5586V8.27424H31.1091V8.90764C31.8687 8.41374 32.7536 8.14728 33.6596 8.13965C36.5559 8.13965 38.6855 10.4421 38.6855 13.1853C38.6855 15.9286 36.5757 18.2311 33.6596 18.2311C32.7497 18.2326 31.8607 17.959 31.1091 17.4461ZM31.1091 11.9781V14.3189C31.3103 14.7473 31.6229 15.1137 32.0143 15.3798C32.4057 15.6459 32.8615 15.8018 33.3338 15.8313C33.8062 15.8608 34.2778 15.7628 34.6992 15.5475C35.1207 15.3322 35.4766 15.0076 35.7295 14.6076C35.9825 14.2076 36.1232 13.7469 36.1371 13.2739C36.1509 12.8008 36.0373 12.3327 35.8082 11.9186C35.5791 11.5045 35.2428 11.1597 34.8346 10.9201C34.4264 10.6805 33.9614 10.5551 33.4881 10.5569C32.9988 10.55 32.5172 10.6793 32.0971 10.9302C31.677 11.1812 31.3349 11.544 31.1091 11.9781Z" fill="#E6E0E9"/>
<path d="M40.0638 5.60798C40.0555 5.41492 40.0867 5.22219 40.1556 5.04165C40.2246 4.86111 40.3296 4.69657 40.4645 4.55814C40.5993 4.41971 40.761 4.31034 40.9397 4.23673C41.1184 4.16312 41.3103 4.12684 41.5035 4.1301C41.6993 4.12671 41.8939 4.16248 42.0758 4.23531C42.2577 4.30814 42.4231 4.41658 42.5625 4.55425C42.7019 4.69192 42.8124 4.85605 42.8875 5.037C42.9625 5.21795 43.0007 5.41208 42.9997 5.60798C42.9956 6.00199 42.8361 6.37843 42.5559 6.65548C42.2757 6.93249 41.8975 7.08765 41.5035 7.08727C41.3113 7.08636 41.1212 7.04721 40.9444 6.97209C40.7675 6.8969 40.6074 6.78729 40.4734 6.64953C40.3393 6.51184 40.2341 6.34882 40.1638 6.16998C40.0935 5.99115 40.0595 5.8001 40.0638 5.60798ZM40.2183 8.27611H42.8085V18.08H40.2183V8.27611Z" fill="#E6E0E9"/>
<path d="M44.3517 13.1469C44.3465 12.487 44.4733 11.8328 44.7246 11.2227C44.9759 10.6125 45.3466 10.0587 45.815 9.59397C46.2834 9.12912 46.8399 8.76263 47.452 8.51603C48.064 8.26937 48.7192 8.1476 49.379 8.15782C50.2811 8.15827 51.1691 8.38222 51.9635 8.8096V8.27261H54.497V17.5196C54.497 20.0701 52.2894 21.4531 49.5278 21.4531C47.724 21.4531 45.9967 20.916 44.8646 20.0361L45.9203 18.2139C46.9962 18.9032 48.25 19.2632 49.5278 19.2497C51.3117 19.2497 51.8686 18.5412 51.9451 17.3892C51.1766 17.8808 50.2855 18.1464 49.3733 18.1558C46.4374 18.1529 44.3517 15.9666 44.3517 13.1469ZM51.9635 14.2393V12.053C51.7492 11.5968 51.4102 11.2106 50.9858 10.9387C50.5613 10.667 50.0686 10.5208 49.5646 10.5171C49.2166 10.5137 48.8713 10.5791 48.5487 10.7096C48.226 10.8401 47.9323 11.0332 47.6845 11.2776C47.4367 11.5219 47.2397 11.8129 47.1046 12.1337C46.9697 12.4545 46.8994 12.7989 46.898 13.1469C46.898 14.6616 48.0485 15.7172 49.5462 15.7172C50.0487 15.7303 50.5444 15.5978 50.9733 15.3356C51.4022 15.0733 51.7461 14.6927 51.9635 14.2393Z" fill="#E6E0E9"/>
<path d="M56.0314 13.1469C56.0262 12.487 56.1531 11.8328 56.4043 11.2227C56.6556 10.6125 57.0263 10.0587 57.4947 9.59397C57.9631 9.12912 58.5197 8.76263 59.1317 8.51603C59.7438 8.26937 60.399 8.1476 61.0587 8.15782C61.9627 8.1575 62.8528 8.38144 63.6489 8.8096V8.27261H66.181V17.5196C66.181 20.0701 63.9748 21.4531 61.2132 21.4531C59.4094 21.4531 57.6822 20.916 56.55 20.0361L57.6056 18.2139C58.6815 18.9034 59.9354 19.2634 61.2132 19.2497C62.9971 19.2497 63.554 18.5412 63.6305 17.3892C62.862 17.8806 61.9709 18.1461 61.0587 18.1558C58.1228 18.1529 56.0314 15.9666 56.0314 13.1469ZM63.6489 14.2393V12.053C63.4345 11.5969 63.0955 11.2108 62.6711 10.939C62.2466 10.6672 61.754 10.5209 61.2501 10.5171C60.902 10.5137 60.5567 10.5791 60.2341 10.7096C59.9114 10.8401 59.6177 11.0332 59.37 11.2776C59.1221 11.5219 58.925 11.8129 58.7901 12.1337C58.6551 12.4545 58.5848 12.7989 58.5833 13.1469C58.5833 14.6616 59.7339 15.7172 61.2316 15.7172C61.7341 15.7302 62.2296 15.5975 62.6585 15.3353C63.0874 15.0731 63.4314 14.6925 63.6489 14.2393Z" fill="#E6E0E9"/>
<path d="M69.8985 8.27637L72.4706 14.8184L75.1171 8.27637H77.8095L72.1633 21.5149H69.7653L71.1823 17.9853L67.0605 8.27637H69.8985Z" fill="#E6E0E9"/>
<path d="M77.3184 8.27637H80.0612L82.5608 14.8963L85.0365 8.27637H87.7282L83.7948 18.0802H81.2149L77.3184 8.27637Z" fill="#E6E0E9"/>
<path d="M87.916 13.1131C87.916 10.3515 89.8908 8.06738 92.9799 8.06738C95.8393 8.06738 98.0114 10.2169 98.0638 13.0409C98.0839 13.2837 98.0839 13.5278 98.0638 13.7706H90.3328C90.4098 15.1522 91.733 16.0533 93.1527 16.0533C94.3232 16.0533 95.013 15.7274 95.8192 15.0614L97.2207 16.5393C96.0871 17.7282 94.9534 18.285 93.1527 18.285C89.8345 18.2751 87.916 15.7997 87.916 13.1131ZM90.4661 11.9427H95.4174C95.1676 11.0231 94.2837 10.2169 92.9417 10.2169C91.3875 10.2169 90.7353 11.0033 90.4661 11.9427Z" fill="#E6E0E9"/>
<path d="M98.5957 17.0271L99.8497 14.9923C100.975 15.7425 102.294 16.1492 103.647 16.1627C104.934 16.1627 105.585 15.8368 105.585 15.2814C105.585 14.9158 105.278 14.648 104.626 14.5134L101.934 13.9381C99.9584 13.513 99.0564 12.5764 99.0564 11.0419C99.0564 9.41101 100.438 8.04785 103.297 8.04785C105.023 8.04785 106.556 8.54803 107.613 9.19988L106.443 11.1566C105.58 10.6961 104.429 10.1974 103.219 10.1974C102.127 10.1974 101.493 10.4666 101.493 10.964C101.493 11.2913 101.724 11.5024 102.356 11.6172L104.623 12.0423C107.079 12.5212 108.024 13.6151 108.024 15.093C108.024 17.2184 105.898 18.3349 103.572 18.3349C101.824 18.3687 100.101 17.9159 98.5957 17.0271Z" fill="#E6E0E9"/>
<path d="M108.538 8.27712H109.997V5.57218L112.547 3.92285V8.27712H114.044V10.5031H112.548V18.0824H109.998V10.5031H108.537V8.27712H108.538Z" fill="#E6E0E9"/>
<path d="M22.1742 9.85235C22.1316 9.23 22.0297 8.61316 21.8696 8.0103C21.1398 5.3181 19.6024 3.19977 17.2588 1.68789C15.7826 0.727833 14.087 0.157927 12.3307 0.0314753C11.5928 -0.0224214 10.8513 -0.00248522 10.1174 0.090987C9.34419 0.193326 8.58416 0.378109 7.85026 0.64218C5.89604 1.34711 4.19046 2.60786 2.94333 4.26937C1.69618 5.93088 0.96188 7.92068 0.830729 9.99405C0.806641 10.3752 0.806641 10.7592 0.806641 11.1417V20.4426C0.806641 20.6842 0.902631 20.916 1.07349 21.0868C1.24436 21.2577 1.4761 21.3537 1.71774 21.3537H5.31111C5.53599 21.3523 5.75254 21.2685 5.91969 21.118C6.08685 20.9676 6.19298 20.761 6.21796 20.5376C6.24161 20.4502 6.25398 20.3602 6.2548 20.2697V20.0543C6.25268 20.0379 6.25268 20.0212 6.2548 20.0048V19.9807C6.27931 19.9872 6.30238 19.9982 6.32281 20.0132C7.66689 20.7565 9.15545 21.2012 10.687 21.3169C11.3004 21.3622 11.9166 21.3561 12.529 21.2984C13.9707 21.1657 15.3699 20.7391 16.6406 20.0451C17.9111 19.351 19.0262 18.4043 19.917 17.263C21.1867 15.6657 21.9637 13.7331 22.1529 11.7014C22.217 11.0871 22.2242 10.468 22.1742 9.85235ZM13.4175 15.795C13.4112 15.8277 13.3934 15.8572 13.3675 15.8782C13.3416 15.8992 13.3091 15.9104 13.2758 15.9098H9.7334C9.70008 15.9104 9.66753 15.8992 9.64165 15.8782C9.6157 15.8572 9.59803 15.8277 9.59169 15.795V15.7724V15.6405C9.59092 15.4779 9.60897 15.3158 9.64553 15.1574C9.66824 15.1036 9.68241 15.0398 9.70506 14.9803C9.72771 14.9208 9.75042 14.8655 9.77306 14.8074C9.79578 14.7493 9.83259 14.6969 9.86378 14.6473L9.91477 14.5708C9.94809 14.5213 9.98452 14.4739 10.0239 14.4291C10.065 14.3781 10.106 14.3341 10.1471 14.2874C10.3603 14.0777 10.6194 13.9205 10.9038 13.8283C10.6588 13.6949 10.4652 13.4838 10.3533 13.2281C10.2415 12.9725 10.218 12.687 10.2863 12.4166C10.3546 12.1461 10.511 11.906 10.7308 11.7343C10.9506 11.5625 11.2214 11.4686 11.5003 11.4677C11.8334 11.4702 12.1523 11.6029 12.3887 11.8375C12.5257 11.9752 12.6287 12.1429 12.6899 12.3273C12.751 12.5116 12.7685 12.7076 12.7411 12.8999C12.7136 13.0922 12.6419 13.2755 12.5315 13.4353C12.4213 13.5952 12.2754 13.7273 12.1054 13.8212C12.488 13.9473 12.821 14.1912 13.0566 14.518C13.2923 14.8447 13.4186 15.2377 13.4175 15.6405C13.4175 15.6916 13.4175 15.7469 13.4175 15.795ZM19.5245 8.07831H3.49034C3.46028 8.07811 3.4307 8.0708 3.40404 8.05689C3.37737 8.04304 3.35438 8.02305 3.33695 7.99859C3.31952 7.97406 3.30815 7.94579 3.30378 7.91609C3.29941 7.88632 3.30216 7.85598 3.3118 7.82751C3.91009 6.132 5.01956 4.66379 6.48729 3.62528C7.95502 2.58676 9.70875 2.02907 11.5067 2.02907C13.3047 2.02907 15.0584 2.58676 16.5262 3.62528C17.9939 4.66379 19.1033 6.132 19.7016 7.82751C19.7112 7.85585 19.714 7.88606 19.7097 7.9157C19.7054 7.94533 19.6942 7.97355 19.6769 7.998C19.6596 8.02246 19.6368 8.04246 19.6104 8.05643C19.5838 8.07041 19.5545 8.07792 19.5245 8.07831Z" fill="#E6E0E9"/>
</g>
</svg>
