<svg width="16" height="13" viewBox="0 0 16 13" fill="none" xmlns="http://www.w3.org/2000/svg">
<path d="M12.6743 1.83301C13.3218 1.83301 13.6455 1.83301 13.8239 1.968C13.9794 2.0856 14.0756 2.26536 14.0872 2.45994C14.1005 2.6833 13.921 2.95265 13.5618 3.49135L8.88825 10.5017C8.5915 10.9469 8.44312 11.1694 8.25611 11.247C8.09261 11.3148 7.90885 11.3148 7.74535 11.247C7.55833 11.1694 7.40996 10.9469 7.11321 10.5017L2.43963 3.49135C2.08049 2.95265 1.90092 2.6833 1.91426 2.45994C1.92588 2.26536 2.02208 2.0856 2.17754 1.968C2.35598 1.83301 2.6797 1.83301 3.32715 1.83301L12.6743 1.83301Z" fill="black" stroke="black" stroke-width="2" stroke-linecap="round" stroke-linejoin="round"/>
</svg>
