<svg width="61" height="22" viewBox="0 0 61 22" fill="none" xmlns="http://www.w3.org/2000/svg">
<g clip-path="url(#clip0_696_2854)">
<path d="M3.48793 15.5797C3.74411 16.2623 4.09881 16.846 4.55207 17.3307C5.00532 17.8155 5.54231 18.1864 6.16297 18.4436C6.78373 18.7009 7.45865 18.8295 8.18781 18.8295C8.89728 18.8295 9.56227 18.6959 10.183 18.4288C10.8038 18.1616 11.3457 17.7857 11.8088 17.301C12.2718 16.8163 12.6315 16.2376 12.8877 15.5649C13.1439 14.8922 13.2719 14.1403 13.2719 13.3093V0.488281H16.3756V21.263H13.3015V19.3339C12.6118 20.0659 11.7989 20.6298 10.8629 21.0256C9.92682 21.4213 8.91696 21.6192 7.83313 21.6192C6.72956 21.6192 5.69993 21.4262 4.74416 21.0404C3.78847 20.6546 2.96076 20.1057 2.26126 19.3933C1.56174 18.6811 1.00992 17.8254 0.605981 16.8262C0.201971 15.827 0 14.7141 0 13.4873V0.488281H3.10367V13.3093C3.10367 14.1403 3.23173 14.8971 3.48793 15.5797Z" fill="#E6E0E9"/>
<path d="M21.7296 0.487305V8.05527C22.4192 7.36274 23.2173 6.81375 24.1239 6.40812C25.0303 6.00249 26.0156 5.79969 27.0796 5.79969C28.1833 5.79969 29.2177 6.00742 30.1834 6.42286C31.1489 6.83837 31.9864 7.40228 32.6958 8.11461C33.4052 8.82693 33.9668 9.66775 34.3807 10.6372C34.7946 11.6068 35.0014 12.6357 35.0014 13.7238C35.0014 14.8119 34.7946 15.8359 34.3807 16.7954C33.9668 17.7551 33.4052 18.5911 32.6958 19.3032C31.9864 20.0156 31.1489 20.5794 30.1834 20.9949C29.2177 21.4104 28.1832 21.6181 27.0796 21.6181C26.0155 21.6181 25.0254 21.4154 24.109 21.0097C23.1927 20.6042 22.3897 20.0551 21.6999 19.3626V21.262H18.7441V0.487305H21.7296ZM22.0694 15.7716C22.3355 16.4047 22.705 16.9587 23.1779 17.4336C23.6509 17.9085 24.2026 18.2844 24.8332 18.5615C25.4638 18.8384 26.1437 18.9769 26.8728 18.9769C27.5823 18.9769 28.2522 18.8384 28.8828 18.5615C29.5133 18.2844 30.0601 17.9085 30.5233 17.4336C30.9864 16.9588 31.3559 16.4047 31.6317 15.7716C31.9076 15.1384 32.0456 14.456 32.0456 13.7238C32.0456 12.9917 31.9076 12.3042 31.6317 11.6611C31.3559 11.0181 30.9864 10.4592 30.5233 9.98431C30.0602 9.50952 29.5134 9.1385 28.8828 8.87146C28.2521 8.60437 27.5821 8.47071 26.8728 8.47071C26.1634 8.47071 25.4934 8.60431 24.8629 8.87146C24.2322 9.13856 23.6805 9.50952 23.2075 9.98431C22.7346 10.4592 22.3602 11.0181 22.0843 11.6611C21.8084 12.3042 21.6704 12.9917 21.6704 13.7238C21.6704 14.456 21.8034 15.1384 22.0694 15.7716Z" fill="#E6E0E9"/>
<path d="M36.679 10.6686C37.0731 9.71884 37.615 8.8829 38.3047 8.16076C38.9943 7.43857 39.8122 6.86978 40.7581 6.45427C41.704 6.03877 42.7287 5.83105 43.8322 5.83105C44.916 5.83105 45.9211 6.0289 46.8473 6.4246C47.7735 6.82031 48.5715 7.36935 49.2415 8.07175C49.9115 8.77408 50.4338 9.60521 50.8081 10.5648C51.1825 11.5243 51.3697 12.5681 51.3697 13.6958V14.6753H39.1028C39.2014 15.2886 39.3984 15.8574 39.694 16.3816C39.9897 16.9059 40.3591 17.361 40.8025 17.7469C41.2458 18.1327 41.7483 18.4344 42.3099 18.6521C42.8716 18.8697 43.4676 18.9786 44.0983 18.9786C45.8916 18.9786 47.34 18.2365 48.4435 16.7526L50.6012 18.3553C49.8524 19.3644 48.9263 20.1557 47.8227 20.7295C46.7192 21.3032 45.4777 21.5902 44.0984 21.5902C42.975 21.5902 41.9258 21.3923 40.9504 20.9966C39.9749 20.6009 39.1276 20.0468 38.4083 19.3346C37.689 18.6222 37.1225 17.7863 36.7087 16.8267C36.2949 15.8672 36.0879 14.8234 36.0879 13.6957C36.0878 12.6273 36.2849 11.6182 36.679 10.6686ZM40.832 9.49622C39.9944 10.1986 39.4378 11.1335 39.162 12.3008H48.3548C48.0986 11.1335 47.5517 10.1986 46.7142 9.49622C45.8768 8.79388 44.8963 8.44266 43.7732 8.44266C42.6498 8.44266 41.6695 8.79388 40.832 9.49622Z" fill="#E6E0E9"/>
<path d="M56.9608 9.83629C56.3301 10.5288 56.0148 11.4686 56.0148 12.6558V21.2625H53.0293V6.12661H55.9852V7.99632C56.3596 7.38299 56.8474 6.89822 57.4484 6.54206C58.0494 6.18589 58.7637 6.00781 59.5912 6.00781H60.6258V8.79753H59.3845C58.3992 8.79759 57.5913 9.14382 56.9608 9.83629Z" fill="#E6E0E9"/>
</g>
<defs>
<clipPath id="clip0_696_2854">
<rect width="60.6487" height="22" fill="white"/>
</clipPath>
</defs>
</svg>
